<svg version="1.2" xmlns="http://www.w3.org/2000/svg" viewBox="0 0 500 500" width="500" height="500">
	<title>3279021_481553-PGQR58-315</title>
	<style>
		.s0 { opacity: .2;fill: #000000 } 
		.s1 { fill: #b9b3e6 } 
		.s2 { fill: #d2cfff } 
		.s3 { fill: #7c75ba } 
		.s4 { fill: #8e88bd } 
		.s5 { fill: #60589e } 
		.s6 { fill: #7873ab } 
		.s7 { fill: #544d8a } 
		.s8 { fill: #ff76d4 } 
		.s9 { fill: #ffffff } 
		.s10 { fill: #d1ff61 } 
		.s11 { fill: #8e86d6 } 
		.s12 { fill: #cdc9ed } 
		.s13 { fill: #bab4ed } 
		.s14 { fill: #403a69 } 
		.s15 { fill: #c5bff0 } 
		.s16 { opacity: .1;fill: #000000 } 
		.s17 { fill: #a59fe3 } 
		.s18 { fill: #beb9f0 } 
		.s19 { fill: #8c89c9 } 
		.s20 { fill: #7370b8 } 
		.s21 { fill: #403973 } 
		.s22 { fill: #4b4675 } 
		.s23 { fill: #aba5d4 } 
	</style>
	<g id="OBJECTS">
		<path class="s0" d="m191.5 266c-39.1 0-70.7-18.3-70.7-40.8 0-22.6 31.6-40.9 70.7-40.9 39.2 0 70.8 18.3 70.8 40.9 0 22.5-31.6 40.8-70.8 40.8z"/>
		<path class="s0" d="m186.5 407.4l-70.9 41.5-111.7-64.3 71.1-41.7z"/>
		<path class="s0" d="m384.1 261.8l-56.4 33-96.8-54.6 56.6-33.1z"/>
		<g>
			<path class="s1" d="m432.6 233.1l-48.5 28.5-0.9-119 48.5-28.5z"/>
			<path class="s2" d="m431.9 114.1l-48.5 28.4-96.7-54.8 48.7-28.5z"/>
			<path class="s1" d="m357.4 83.7l-27.8 16.3c-2.1 1.3-5.5 1.5-7.4 0.4l-18.5-10.5c-1.9-1.1-1.7-3 0.5-4.3l27.8-16.3c2.2-1.3 5.5-1.5 7.4-0.4l18.5 10.5c1.9 1.1 1.7 3-0.5 4.3z"/>
			<path class="s3" d="m384.1 261.5l-96.6-54.8-0.8-119 96.5 54.8z"/>
			<path class="s4" d="m432.6 233.3l-48.5 28.5-0.3-30.5 48.6-28.5z"/>
			<path class="s5" d="m384.1 261.8l-96.6-54.8-0.2-30.6 96.5 54.9z"/>
			<path class="s6" d="m432.6 233.4l-48.5 28.5-0.1-8.2 48.6-28.5z"/>
			<path class="s7" d="m384.1 261.9l-96.6-54.8v-8.2l96.5 54.8z"/>
			<path class="s4" d="m432 122.3l-48.6 28.5v-8.3l48.5-28.4z"/>
			<path class="s5" d="m383.4 150.7l-96.7-54.8v-8.2l96.7 54.8z"/>
			<path class="s7" d="m418.6 222.7c-5.6 9.9-14.7 15.3-20.4 12-5.7-3.2-5.8-13.8-0.2-23.7 5.6-9.9 14.7-15.2 20.4-12 5.7 3.2 5.8 13.8 0.2 23.7z"/>
			<path class="s5" d="m418 211.2c0 6.2-4.3 13.7-9.6 16.9-5.4 3.1-9.7 0.6-9.8-5.6 0-6.1 4.3-13.7 9.6-16.8 5.3-3.2 9.7-0.7 9.8 5.5z"/>
			<path class="s2" d="m413.6 213.7c0 3.4-2.3 7.6-5.3 9.3-2.9 1.7-5.3 0.4-5.3-3 0-3.4 2.3-7.6 5.2-9.3 3-1.7 5.4-0.4 5.4 3z"/>
			<path class="s5" d="m423.5 141.7l-31.4 18.5c-1.2 0.7-2.2 0-2.2-1.6 0-1.5 1-3.4 2.1-4l31.5-18.5c1.2-0.7 2.1 0 2.1 1.6 0 1.5-0.9 3.3-2.1 4z"/>
			<path class="s5" d="m423.6 154.7l-31.4 18.5c-1.2 0.7-2.2 0-2.2-1.6 0-1.5 1-3.3 2.1-4l31.5-18.5c1.2-0.7 2.1 0 2.1 1.6 0 1.5-0.9 3.3-2.1 4z"/>
			<path class="s5" d="m423.7 167.7l-31.4 18.5c-1.2 0.7-2.2 0-2.2-1.5 0-1.6 1-3.4 2.1-4.1l31.5-18.5c1.1-0.7 2.1 0.1 2.1 1.6 0 1.6-0.9 3.4-2.1 4z"/>
			<path class="s5" d="m423.8 180.8l-31.5 18.5c-1.1 0.6-2.1-0.1-2.1-1.6 0-1.6 1-3.4 2.1-4.1l31.5-18.4c1.1-0.7 2.1 0 2.1 1.5 0 1.6-0.9 3.4-2.1 4.1z"/>
			<path class="s8" d="m395.3 155.4c0 0.9-0.6 1.9-1.3 2.4-0.7 0.4-1.3 0.1-1.3-0.8 0-0.8 0.5-1.9 1.3-2.3 0.7-0.4 1.3-0.1 1.3 0.7z"/>
			<path class="s9" d="m411.8 158.9c0 0.8-0.6 1.9-1.3 2.3-0.8 0.4-1.4 0.1-1.4-0.8 0-0.8 0.6-1.9 1.3-2.3 0.8-0.4 1.4-0.1 1.4 0.8z"/>
			<path class="s10" d="m420.4 180c0 0.8-0.6 1.9-1.3 2.3-0.8 0.4-1.4 0.1-1.4-0.8 0-0.8 0.6-1.9 1.4-2.3 0.7-0.4 1.3-0.1 1.3 0.8z"/>
			<path class="s2" d="m399.6 179.1c0 0.8-0.5 1.9-1.3 2.3-0.7 0.4-1.3 0.1-1.3-0.8 0-0.8 0.6-1.9 1.3-2.3 0.7-0.4 1.3-0.1 1.3 0.8z"/>
			<path class="s5" d="m367.4 194.9l-63.7-36.2c-2.5-1.4-4.5-5.2-4.5-8.5l-0.2-32.8c-0.1-3.3 1.9-4.8 4.4-3.4l63.7 36.2c2.4 1.4 4.4 5.1 4.5 8.4l0.2 32.9c0 3.2-1.9 4.7-4.4 3.4z"/>
			<path class="s4" d="m337.6 74.4l-24.4 14.3c-1.1 0.6-2.8 0.7-3.7 0.2l-0.2-0.1c-1-0.6-0.9-1.5 0.2-2.2l24.4-14.3c1.1-0.6 2.7-0.7 3.7-0.2l0.2 0.2c0.9 0.5 0.8 1.5-0.2 2.1z"/>
			<path class="s4" d="m344.8 78.5l-24.4 14.4c-1 0.6-2.7 0.7-3.6 0.1l-0.3-0.1c-0.9-0.5-0.8-1.5 0.3-2.1l24.4-14.4c1.1-0.6 2.7-0.7 3.6-0.1l0.3 0.1c0.9 0.5 0.8 1.5-0.3 2.1z"/>
			<path class="s4" d="m352.1 82.7l-24.4 14.3c-1.1 0.6-2.7 0.7-3.6 0.2l-0.3-0.2c-0.9-0.5-0.8-1.5 0.3-2.1l24.4-14.3c1-0.6 2.7-0.7 3.6-0.2l0.3 0.1c0.9 0.6 0.8 1.5-0.3 2.2z"/>
		</g>
		<g>
			<g>
				<path class="s11" d="m264.2 202c-0.6-8.8-6.6-17.4-18.2-24.1-24.2-14-63.5-14-87.7 0-12.1 7-18.2 16.2-18.2 25.3v16.9c0 9.2 6.1 18.4 18.2 25.4 24.2 14 63.5 14 87.7 0 12.2-7 18.2-16.2 18.2-25.4v-18.1z"/>
				<path class="s5" d="m202.2 239.1c-34.4 0-62.1-16-62.1-35.9 0-19.8 27.7-35.8 62.1-35.8 34.3 0 62 16 62 35.8 0 19.9-27.7 35.9-62 35.9z"/>
				<path class="s11" d="m264.2 179.9c-0.6-8.7-6.6-17.3-18.2-24-24.2-14-63.5-14-87.7 0-12.1 7-18.2 16.1-18.2 25.3v16.9c0 9.2 6.1 18.3 18.2 25.3 24.2 14 63.5 14 87.7 0 12.2-7 18.2-16.1 18.2-25.3v-18.2z"/>
				<path class="s5" d="m202.2 217c-34.4 0-62.1-16-62.1-35.8 0-19.8 27.7-35.8 62.1-35.8 34.3 0 62 16 62 35.8 0 19.8-27.7 35.8-62 35.8z"/>
				<path class="s11" d="m264.2 157.7c-0.6-8.7-6.6-17.4-18.2-24.1-24.2-14-63.5-14-87.7 0-12.1 7-18.2 16.2-18.2 25.4v16.9c0 9.1 6.1 18.3 18.2 25.3 24.2 14 63.5 14 87.7 0 12.2-7 18.2-16.2 18.2-25.3v-18.2z"/>
				<path class="s5" d="m202.2 194.8c-34.4 0-62.1-16-62.1-35.8 0-19.8 27.7-35.9 62.1-35.9 34.3 0 62 16.1 62 35.9 0 19.8-27.7 35.8-62 35.8z"/>
				<path class="s11" d="m264.2 135.7c-0.6-8.8-6.6-17.4-18.2-24.1-24.2-14-63.5-14-87.7 0-12.1 7-18.2 16.2-18.2 25.3v16.9c0 9.2 6.1 18.4 18.2 25.4 24.2 14 63.5 14 87.7 0 12.2-7 18.2-16.2 18.2-25.4v-18.1z"/>
				<path class="s5" d="m202.2 172.8c-34.4 0-62.1-16-62.1-35.9 0-19.8 27.7-35.8 62.1-35.8 34.3 0 62 16 62 35.8 0 19.9-27.7 35.9-62 35.9z"/>
				<path class="s11" d="m264.2 113.4c-0.6-8.7-6.6-17.4-18.2-24-24.2-14-63.5-14-87.7 0-12.1 7-18.2 16.1-18.2 25.3v16.9c0 9.2 6.1 18.3 18.2 25.3 24.2 14 63.5 14 87.7 0 12.2-7 18.2-16.1 18.2-25.3v-18.2z"/>
				<path class="s12" d="m202.2 150.5c-34.4 0-62.1-16-62.1-35.8 0-19.8 27.7-35.8 62.1-35.8 34.3 0 62 16 62 35.8 0 19.8-27.7 35.8-62 35.8z"/>
				<path class="s13" d="m202.2 146.8c-30.8 0-55.6-14.4-55.6-32.1 0-17.7 24.8-32.1 55.6-32.1 30.7 0 55.5 14.4 55.5 32.1 0 17.7-24.8 32.1-55.5 32.1z"/>
				<path class="s5" d="m242.4 106c-0.3-5.7-4.2-11.3-11.7-15.6-15.8-9.1-41.3-9.1-57.1 0-7.8 4.5-11.8 10.5-11.8 16.4v11c0 5.9 4 11.9 11.8 16.5 15.8 9 41.3 9 57.1 0 7.8-4.6 11.8-10.6 11.8-16.5v-11.8z"/>
				<path class="s11" d="m202.2 130.1c-22.3 0-40.4-10.4-40.4-23.3 0-12.9 18.1-23.3 40.4-23.3 22.3 0 40.3 10.4 40.3 23.3 0 12.9-18 23.3-40.3 23.3z"/>
				<g>
					<path class="s14" d="m223.5 105.8c0-3.1-2-6.3-6.2-8.7-8.4-4.8-21.9-4.8-30.3 0-4.1 2.4-6.2 5.6-6.2 8.7v4c0.2 3 2.3 6 6.2 8.3 8.4 4.8 21.9 4.8 30.3 0 4.2-2.4 6.2-5.6 6.2-8.7z"/>
					<path class="s5" d="m187 100.6c8.4-4.8 21.9-4.8 30.3 0 8.3 4.9 8.3 12.7 0 17.5-8.4 4.8-21.9 4.8-30.3 0-8.3-4.8-8.3-12.6 0-17.5z"/>
				</g>
				<g>
					<path class="s2" d="m214.8 99.4c-0.2-1.8-1.4-3.5-3.7-4.9-5-2.8-12.9-2.8-17.9 0-2.4 1.4-3.6 3.3-3.6 5.2v9.9c0 1.8 1.2 3.7 3.6 5.1 5 2.9 12.9 2.9 17.9 0 2.4-1.4 3.7-3.3 3.7-5.1v-6.5-3.7z"/>
					<path class="s15" d="m211.1 104.8c-5 2.9-12.9 2.9-17.9 0-4.9-2.8-4.9-7.4 0-10.3 5-2.8 13-2.8 17.9 0 4.9 2.9 4.9 7.5 0 10.3z"/>
				</g>
				<path class="s9" d="m164.3 152.7c0 2.4-1.7 3.4-3.8 2.2-2.1-1.2-3.8-4.1-3.8-6.6 0-2.4 1.7-3.4 3.8-2.2 2.1 1.2 3.8 4.2 3.8 6.6z"/>
				<path class="s15" d="m153.1 188.4c0 2-1.4 2.8-3.1 1.8-1.7-1-3.1-3.4-3.1-5.4 0-2 1.4-2.8 3.1-1.8 1.7 1 3.1 3.4 3.1 5.4z"/>
				<path class="s10" d="m241.2 151c0 2.4 1.7 3.4 3.8 2.1 2.1-1.2 3.8-4.1 3.8-6.5 0-2.5-1.7-3.5-3.8-2.2-2.1 1.2-3.8 4.1-3.8 6.6z"/>
				<path class="s8" d="m250.7 144.4c0 1.8 1.3 2.5 2.9 1.6 1.5-0.9 2.8-3.1 2.8-4.9 0-1.8-1.3-2.5-2.8-1.6-1.6 0.9-2.9 3.1-2.9 4.9z"/>
				<path class="s10" d="m241.2 195.8c0 2.4 1.7 3.4 3.8 2.2 2.1-1.2 3.8-4.2 3.8-6.6 0-2.4-1.7-3.4-3.8-2.2-2.1 1.2-3.8 4.2-3.8 6.6z"/>
				<path class="s15" d="m250.7 189.2c0 1.9 1.3 2.6 2.9 1.7 1.5-0.9 2.8-3.1 2.8-4.9 0-1.8-1.3-2.6-2.8-1.7-1.6 0.9-2.9 3.1-2.9 4.9z"/>
				<path class="s15" d="m231.2 155c0 1.6 1.3 2.5 2.8 2 1.6-0.5 2.9-2.2 2.9-3.8 0-1.6-1.3-2.5-2.9-2-1.5 0.5-2.8 2.2-2.8 3.8z"/>
			</g>
			<path class="s16" d="m158.3 140c-12.1-7-18.2-16.1-18.2-25.3v16.9q0 1.3 0.2 2.7-0.2 1.3-0.2 2.6v16.9q0 1.3 0.2 2.6-0.2 1.3-0.2 2.6v16.9q0 1.3 0.2 2.6-0.2 1.4-0.2 2.7v16.9q0 1.3 0.2 2.6-0.2 1.3-0.2 2.5v16.9c0 9.2 6.1 18.4 18.2 25.4 12.1 7 28 10.5 43.9 10.5v-105.5c-15.9 0-31.8-3.5-43.9-10.5z"/>
			<path class="s16" d="m166.7 144.1q-4.5-1.8-8.4-4.1c-12.1-7-18.2-16.1-18.2-25.3v16.9q0 1.3 0.2 2.7-0.2 1.3-0.2 2.6v16.9q0 1.3 0.2 2.6-0.2 1.3-0.2 2.6v16.9q0 1.3 0.2 2.6-0.2 1.4-0.2 2.7v16.9q0 1.3 0.2 2.6-0.2 1.3-0.2 2.5v16.9c0 9.2 6.1 18.4 18.2 25.4q3.9 2.2 8.4 4z"/>
			<path class="s16" d="m246 245.5c12.2-7 18.2-16.2 18.2-25.4v-18.1q-0.1-0.3-0.1-0.6c-15.3 13.3-36.1 15.8-77.8-4-27.7-13.1-40.4-26.9-46.2-36v14.5q0 1.3 0.2 2.6-0.2 1.3-0.2 2.6 0 0 0 0.1v16.9q0 1.3 0.2 2.6-0.2 1.2-0.2 2.5 0 0 0 0v16.9c0 9.2 6.1 18.4 18.2 25.4 24.2 14 63.5 14 87.7 0z"/>
		</g>
		<path class="s17" d="m355.8 309.6l-50.6 29.3v-54.3l50.7-29.2z"/>
		<path class="s18" d="m355.9 255.4l-50.7 29.2-74.2-43.2 50.7-29.3z"/>
		<path class="s3" d="m304.5 237.7l-29 16.7c-2.2 1.4-5.7 1.5-7.6 0.4l-19.2-11.1c-2-1.1-1.7-3.1 0.5-4.4l29-16.8c2.3-1.3 5.7-1.4 7.7-0.3l19.2 11.1c1.9 1.1 1.7 3.1-0.6 4.4z"/>
		<path class="s5" d="m305.2 338.8l-74.2-43.2v-54.3l74.2 43.3z"/>
		<path class="s19" d="m355.8 309.9l-50.6 29.2v-31.7l50.6-29.2z"/>
		<path class="s7" d="m305.2 339.1l-74.2-43.3v-31.7l74.2 43.3z"/>
		<path class="s20" d="m355.8 310l-50.6 29.2v-8.5l50.6-29.3z"/>
		<path class="s21" d="m305.2 339.2l-74.2-43.2v-8.6l74.2 43.3z"/>
		<path class="s22" d="m341.4 303.3c-5.9 10.2-15.5 15.7-21.4 12.3-5.9-3.4-5.9-14.4 0-24.6 5.9-10.2 15.5-15.7 21.4-12.3 5.9 3.4 5.9 14.4 0 24.6z"/>
		<path class="s5" d="m340.8 291.3c0 6.4-4.5 14.3-10.1 17.5-5.6 3.2-10.1 0.6-10.1-5.9 0-6.4 4.5-14.2 10.1-17.4 5.6-3.2 10.1-0.6 10.1 5.8z"/>
		<path class="s2" d="m336.2 293.9c0 3.6-2.4 7.9-5.5 9.6-3.1 1.8-5.5 0.4-5.5-3.2 0-3.5 2.4-7.8 5.5-9.6 3.1-1.7 5.5-0.3 5.5 3.2z"/>
		<path class="s5" d="m284 227.9l-25.5 14.7c-1.1 0.6-2.8 0.7-3.8 0.1l-0.2-0.1c-1-0.6-0.9-1.6 0.2-2.2l25.5-14.7c1.1-0.6 2.8-0.7 3.8-0.2l0.2 0.2c1 0.6 0.9 1.5-0.2 2.2z"/>
		<path class="s5" d="m291.5 232.2l-25.5 14.7c-1.1 0.7-2.8 0.7-3.8 0.2l-0.2-0.2c-1-0.5-0.9-1.5 0.3-2.1l25.4-14.7c1.1-0.7 2.8-0.8 3.8-0.2l0.3 0.1c0.9 0.6 0.8 1.6-0.3 2.2z"/>
		<path class="s5" d="m299 236.6l-25.4 14.7c-1.2 0.6-2.9 0.7-3.8 0.1l-0.3-0.1c-1-0.6-0.8-1.6 0.3-2.2l25.4-14.7c1.2-0.6 2.9-0.7 3.8-0.2l0.3 0.2c1 0.6 0.8 1.5-0.3 2.2z"/>
		<g>
			<path class="s21" d="m237.4 260l55.4 32.2c1.2 0.7 2.2 0 2.2-1.6 0-1.6-1-3.5-2.2-4.2l-55.4-32.3c-1.2-0.7-2.2 0.1-2.2 1.7 0 1.6 1 3.5 2.2 4.2z"/>
			<path class="s21" d="m237.4 282.2l55.4 32.3c1.2 0.7 2.2-0.1 2.2-1.7 0-1.6-1-3.4-2.2-4.1l-55.4-32.3c-1.2-0.7-2.2 0-2.2 1.6 0 1.6 1 3.5 2.2 4.2z"/>
			<path class="s8" d="m241 281.4c0 0.8 0.6 1.9 1.3 2.4 0.8 0.4 1.4 0 1.4-0.8 0-0.9-0.6-2-1.4-2.4-0.7-0.5-1.3-0.1-1.3 0.8z"/>
			<path class="s10" d="m285.1 284.9c0 0.8 0.6 1.9 1.4 2.4 0.8 0.4 1.4 0 1.4-0.8 0-0.9-0.6-2-1.4-2.4-0.8-0.5-1.4-0.1-1.4 0.8z"/>
		</g>
		<path class="s0" d="m231 296l-59.3 34.3 74.2 43.1 59.3-34.2z"/>
		<g>
			<path class="s1" d="m243.1 374.3l-56.6 33.1v-138.6l56.6-32.7z"/>
			<path class="s2" d="m243.1 236.1l-56.6 32.6-111.5-64.5 56.7-32.7z"/>
			<path class="s1" d="m157 200.2l-32.4 18.7c-2.5 1.5-6.4 1.6-8.6 0.3l-21.4-12.3c-2.2-1.3-1.9-3.5 0.6-5l32.4-18.7c2.6-1.5 6.4-1.6 8.6-0.4l21.5 12.4c2.2 1.3 1.9 3.5-0.7 5z"/>
			<path class="s3" d="m186.5 407.4l-111.5-64.9v-138.3l111.5 64.5z"/>
			<path class="s4" d="m243.1 374.6l-56.6 32.8v-35.6l56.6-32.7z"/>
			<path class="s5" d="m186.5 407.4l-111.5-64.6v-35.5l111.5 64.5z"/>
			<path class="s6" d="m243.1 374.7l-56.6 32.7v-9.6l56.6-32.7z"/>
			<path class="s7" d="m186.5 407.4l-111.5-64.5v-9.6l111.5 64.6z"/>
			<path class="s4" d="m243.1 245.7l-56.6 32.7v-9.6l56.6-32.7z"/>
			<path class="s5" d="m186.5 278.2l-111.5-64.5v-9.5l111.5 64.5z"/>
			<path class="s7" d="m226.9 362.2c-6.6 11.4-17.3 17.6-23.9 13.8-6.6-3.9-6.6-16.2 0-27.6 6.6-11.4 17.3-17.6 23.9-13.8 6.6 3.8 6.6 16.2 0 27.6z"/>
			<path class="s5" d="m226.3 348.8c0 7.2-5.1 15.9-11.3 19.5-6.2 3.6-11.3 0.7-11.3-6.5 0-7.2 5.1-15.9 11.3-19.5 6.2-3.6 11.3-0.7 11.3 6.5z"/>
			<path class="s2" d="m221.2 351.7c0 4-2.8 8.8-6.2 10.7-3.4 2-6.2 0.4-6.2-3.5 0-4 2.8-8.8 6.2-10.8 3.4-1.9 6.2-0.3 6.2 3.6z"/>
			<path class="s5" d="m233.4 268.1l-36.8 21.2c-1.3 0.8-2.4-0.1-2.4-1.8 0-1.8 1.1-3.9 2.4-4.7l36.8-21.2c1.3-0.8 2.4 0 2.4 1.8 0 1.8-1.1 3.9-2.4 4.7z"/>
			<path class="s5" d="m233.4 283.2l-36.8 21.2c-1.3 0.8-2.4 0-2.4-1.8 0-1.8 1.1-3.9 2.4-4.7l36.8-21.2c1.3-0.8 2.4 0.1 2.4 1.9 0 1.7-1.1 3.9-2.4 4.6z"/>
			<path class="s5" d="m233.4 298.4l-36.8 21.2c-1.3 0.7-2.4-0.1-2.4-1.9 0-1.8 1.1-3.9 2.4-4.7l36.8-21.2c1.3-0.7 2.4 0.1 2.4 1.9 0 1.8-1.1 3.9-2.4 4.7z"/>
			<path class="s5" d="m233.4 313.5l-36.8 21.2c-1.3 0.8-2.4-0.1-2.4-1.9 0-1.7 1.1-3.9 2.4-4.6l36.8-21.2c1.3-0.8 2.4 0 2.4 1.8 0 1.8-1.1 3.9-2.4 4.7z"/>
			<path class="s9" d="m200.5 283.8c0 1-0.7 2.2-1.6 2.7-0.9 0.5-1.5 0.1-1.5-0.9 0-1 0.6-2.2 1.5-2.7 0.9-0.5 1.6-0.1 1.6 0.9z"/>
			<path class="s8" d="m219.5 287.9c0 1-0.6 2.2-1.5 2.7-0.9 0.5-1.6 0.1-1.6-0.9 0-1 0.7-2.2 1.6-2.7 0.9-0.5 1.5-0.1 1.5 0.9z"/>
			<path class="s23" d="m229.4 312.5c0 1-0.7 2.2-1.6 2.7-0.8 0.5-1.5 0.1-1.5-0.9 0-1 0.7-2.2 1.5-2.7 0.9-0.5 1.6-0.1 1.6 0.9z"/>
			<path class="s10" d="m205.3 311.3c0 1-0.7 2.2-1.6 2.7-0.8 0.5-1.5 0.1-1.5-0.9 0-1 0.7-2.2 1.5-2.7 0.9-0.5 1.6-0.1 1.6 0.9z"/>
			<path class="s5" d="m167.7 329.4l-73.7-42.6c-2.9-1.7-5.2-6.1-5.2-9.9v-38.2c0-3.7 2.3-5.5 5.2-3.9l73.7 42.6c2.8 1.7 5.1 6.1 5.1 9.9v38.2c0 3.8-2.3 5.5-5.1 3.9z"/>
			<path class="s4" d="m134.1 189.2l-28.5 16.4c-1.3 0.7-3.2 0.8-4.3 0.2l-0.3-0.2c-1-0.6-0.9-1.7 0.4-2.4l28.4-16.5c1.3-0.7 3.2-0.8 4.3-0.1l0.3 0.1c1 0.6 0.9 1.7-0.3 2.5z"/>
			<path class="s4" d="m142.5 194l-28.5 16.5c-1.2 0.7-3.2 0.8-4.2 0.2l-0.3-0.2c-1.1-0.6-1-1.7 0.3-2.5l28.5-16.4c1.2-0.7 3.1-0.8 4.2-0.2l0.3 0.2c1.1 0.6 0.9 1.7-0.3 2.4z"/>
			<path class="s4" d="m150.9 198.9l-28.5 16.4c-1.2 0.8-3.1 0.8-4.2 0.2l-0.3-0.2c-1.1-0.6-0.9-1.7 0.3-2.4l28.5-16.4c1.2-0.8 3.1-0.8 4.2-0.2l0.3 0.2c1.1 0.6 1 1.7-0.3 2.4z"/>
		</g>
	</g>
</svg>